<?xml version="1.0" encoding="UTF-8" standalone="no"?>
<!-- Created with Inkscape (http://www.inkscape.org/) -->

<svg
   xmlns:dc="http://purl.org/dc/elements/1.1/"
   xmlns:cc="http://creativecommons.org/ns#"
   xmlns:rdf="http://www.w3.org/1999/02/22-rdf-syntax-ns#"
   xmlns:svg="http://www.w3.org/2000/svg"
   xmlns="http://www.w3.org/2000/svg"
   xmlns:sodipodi="http://sodipodi.sourceforge.net/DTD/sodipodi-0.dtd"
   xmlns:inkscape="http://www.inkscape.org/namespaces/inkscape"
   width="165.00021"
   height="200"
   viewBox="0 0 43.656306 52.916668"
   version="1.1"
   id="svg8"
   inkscape:version="0.92.1 r15371"
   sodipodi:docname="graph.svg">
  <defs
     id="defs2" />
  <sodipodi:namedview
     id="base"
     pagecolor="#ffffff"
     bordercolor="#666666"
     borderopacity="1.0"
     inkscape:pageopacity="0.0"
     inkscape:pageshadow="2"
     inkscape:zoom="0.98994949"
     inkscape:cx="-129.82964"
     inkscape:cy="93.763697"
     inkscape:document-units="px"
     inkscape:current-layer="layer1"
     showgrid="false"
     units="px"
     fit-margin-top="0"
     fit-margin-left="0"
     fit-margin-right="0"
     fit-margin-bottom="0"
     inkscape:window-width="1366"
     inkscape:window-height="745"
     inkscape:window-x="-8"
     inkscape:window-y="-8"
     inkscape:window-maximized="1" />
  <metadata
     id="metadata5">
    <rdf:RDF>
      <cc:Work
         rdf:about="">
        <dc:format>image/svg+xml</dc:format>
        <dc:type
           rdf:resource="http://purl.org/dc/dcmitype/StillImage" />
        <dc:title></dc:title>
      </cc:Work>
    </rdf:RDF>
  </metadata>
  <g
     inkscape:label="Layer 1"
     inkscape:groupmode="layer"
     id="layer1"
     transform="translate(-28.87048,-138.24461)">
    <path
       style="opacity:1;fill:#f11d18;fill-opacity:1;stroke:none;stroke-width:1.99999988;stroke-miterlimit:4;stroke-dasharray:none;stroke-opacity:1"
       d="M 2 0 C 0.89200007 0 -5.1014962e-018 0.89200007 0 2 L 0 198 C 0 199.108 0.89200007 200 2 200 L 28 200 C 29.108 200 30 199.108 30 198 L 30 2 C 30 0.89200007 29.108 -5.1014962e-018 28 0 L 2 0 z M 47 40 C 45.892 40 45 40.892 45 42 L 45 198 C 45 199.108 45.892 200 47 200 L 73 200 C 74.108 200 75 199.108 75 198 L 75 42 C 75 40.892 74.108 40 73 40 L 47 40 z M 92 100 C 90.892 100 90 100.892 90 102 L 90 198 C 90 199.108 90.892 200 92 200 L 118 200 C 119.108 200 120 199.108 120 198 L 120 102 C 120 100.892 119.108 100 118 100 L 92 100 z M 137 150 C 135.892 150 135 150.892 135 152 L 135 198 C 135 199.108 135.892 200 137 200 L 163 200 C 164.108 200 165 199.108 165 198 L 165 152 C 165 150.892 164.108 150 163 150 L 137 150 z "
       id="rect4485"
       transform="matrix(0.26458334,0,0,0.26458334,28.87048,138.24461)" />
  </g>
</svg>
