<svg width="61.79mm" height="61.695mm" version="1.1" viewBox="0 0 61.79026 61.695187" xmlns="http://www.w3.org/2000/svg">
	<defs>
		<clipPath id="clipPath568">
			<path d="m265.78 416.6h152.84v-152.84h-152.84z"/>
		</clipPath>
		<clipPath id="clipPath552">
			<path d="m286.49 396.32h154.45v-154.45h-154.45z"/>
		</clipPath>
	</defs>
	<g transform="translate(-69.269 -116.1)">
		<g transform="matrix(.35278 0 0 -.35278 130.96 146.94)">
			<path d="m0 0c0 48.293-39.149 87.442-87.442 87.442-48.292 0-87.442-39.149-87.442-87.442s39.15-87.442 87.442-87.442c48.293 0 87.442 39.149 87.442 87.442" fill="#2394e0"/>
		</g>
		<g transform="matrix(.35278 0 0 -.35278 99.098 159.75)">
			<path d="m0 0c0.49 0.409 1.143 0.858 1.198 0.359 0.033-0.293-0.741-0.277-1.198-0.359m-16.234 98.084c-0.462-0.031-0.708-0.369-1.294-0.985-0.585-0.616-0.924-0.616-1.601-0.616-0.678 0-0.801-0.124-2.372-0.555-1.57-0.431-1.078-0.185-1.909 0.37-0.832 0.554-0.986 0.585-1.078 0.862-0.093 0.277 1.263-0.061 1.694 0.216s0.985 0.955 0.985 0.955-0.303 0.921 0.555 1.17c0.388 0.113 0.277-0.401 0.554-1.047 0.277-0.647 0.554-0.955 1.571-0.849 1.016 0.106 1.17 0.633 2.587 0.787s0.77-0.277 0.308-0.308m-8.439 4.928s0.493 0.154 1.756 0.431c1.262 0.277 0.215 0.185-0.534 0.524s-0.575 0.092-2.177 0.308c-1.601 0.215 1.171 0.277 2.772 0.338 1.602 0.062 0.436 0.067 2.064-0.184 0.638-0.099-0.062-0.647 0.831-0.955s0-0.216 0-0.708c0-0.493-0.338-0.586-1.108-0.093-0.771 0.493-0.616 0-0.863-0.215-0.246-0.216-1.263-0.986-1.263-0.986s-1.17 0.4-1.971 0.893c-0.8 0.493 0.493 0.647 0.493 0.647m-8.347-41.24c-0.523-1.201-0.585-0.554-1.786-0.647-1.202-0.092 0 0.616 0 2.249 0 1.632-0.153 1.096 1.54 1.17 0.709 0.031 0.77-1.571 0.246-2.772m21.467 27.719c0.093 1.14-0.158 0.914 0.99 0.739 0.404-0.061 0.766-0.369 0.396-1.509-0.369-1.139-0.554-0.431-1.57-1.016-1.017-0.585 0.092 0.647 0.184 1.786m2.855-7.001s0.698-1.027 0.205-1.448c-0.493-0.422-0.37-0.852 0.287-1.181 0.657-0.328 0.78-0.205 0.534-0.821s0.206-0.821 0.411-1.889-0.945-0.452-0.945 0.51c0 0.961-0.369 0.722-0.985 1.215s-0.575 0.739-0.44 1.232c0.136 0.493 0.234 0.739-0.587 1.56-0.821 0.822-0.123 0.904 1.52 0.822m2.176 0.025c0.698 0.107 0.082 0.549 0.205 1.248 0.123 0.698 0.781 0.369 2.218 0.328 0 0 0.246-0.493-0.411-0.657s-0.328-0.287-0.493-0.698c-0.164-0.411-0.164-0.411-0.205-1.273s-0.082-1.027 0.452-1.725 0.287-0.698 0.493-2.077c0.205-1.38-0.616-0.715-1.479-0.921-0.862-0.205 0 0-0.046 0.699-0.045 0.698 0.252 1.149-0.241 2.113s-0.781 0.35-0.863 1.049c-0.082 0.698 0.247 0.698-0.345 1.273-0.591 0.574 0.017 0.533 0.715 0.641m8.644-9.471c2.403 0.801 1.848 1.386 3.265 0.293s2.094-0.423 2.279-1.528 1.786-2.043 1.786-2.043l2.218-0.417 3.326-0.695s1.007-0.35 1.232-1.127c0.225-0.776 0.924-1.097-0.431-1.085-1.355 0.011-3.018 0.566-3.018 0.566s-0.344-0.308-0.296-1.663c0.049-1.355 0.665-1.109-0.259-1.91s-3.08-1.478-1.417-1.417c1.664 0.062 2.957 0.925 3.696 0.432 0.74-0.493 1.227 0.616 1.969 0.677 0.742 0.062-0.121 0.562 0.803 1.236s1.018 1.167 2.388 1.043c1.37-0.123 1.123 0.308 2.417 0.308s2.341-1.101 0.616-1.351-1.971 0.058-3.326-0.497c-1.356-0.554-1.356 0.308-1.663-0.923-0.309-1.232 0.862-1.048-0.801-1.664s-0.739-0.155-2.649-0.447c-1.909-0.292-1.478-0.415-3.018-0.292s-2.834 0.123-2.095 1.294c0.74 1.17 2.649 0.739 2.218 2.094s-1.047 1.17-1.91 0.862c-0.862-0.308 0.4 1.148 0.416 1.652s-0.477 1.141-1.401 1.315c-0.924 0.175-0.924 1.029-1.725-0.23-0.801-1.258-0.801-0.358-1.109-1.085-0.308-0.728-0.492 0.08-0.492-2.079 0-2.16 0.431-3.487-1.417-3.87-1.848-0.384-2.033 2.641-1.232 3.87 0.801 1.228 1.54 2.129 0.554 2.079-0.985-0.05 0.062 1.756 1.17 1.962 1.109 0.205 1.602 0.11 2.526 0.25s1.663 0.017 1.786 0.263c0.124 0.247-0.985 1.54-2.094 1.324-1.109-0.215-0.246-0.304-1.663-0.475s-2.772 0.075-2.402 0.475c0.369 0.401 0.701 0.401-0.327 0.771-1.029 0.369 0.08 2.032 0.08 2.032m30.881 13.922c0.308 0.164 0.719-0.206 1.027-0.452s0.698-0.493 1.335-0.123c0.636 0.369 1.006 0.143 1.622-0.123 0.616-0.267-0.082-0.555-0.883-0.863s-0.144-0.287-0.863-0.287c-0.718 0-0.225-0.39-0.451-0.698s-0.801 0.636-1.643 1.314c-0.842 0.677-0.802 0.88-0.144 1.232m43.591-92.644s-2.217-0.369-2.587-0.493c-0.369-0.123-1.355-0.246-1.725-0.616-0.369-0.369-0.492 0.124-1.724-0.246s-1.602-0.123-0.863 1.232c0.74 1.355 0.247 1.725 0.124 2.71-0.124 0.986 1.355 1.602-1.109 1.725s-2.587 0.616-4.312-0.37c-1.725-0.985-3.08-1.971-3.08-1.971l-1.725 0.986s-1.971 2.094-2.34 2.217c-0.37 0.124-1.848 0.124-1.848 0.124s-0.37 1.232-0.124 2.34c0.247 1.109-0.123 1.479-0.862 1.109s-2.094-1.109-2.094-1.109-2.218-0.246-3.573-0.985-1.478-1.232-3.696-0.986c-2.217 0.247-2.341-1.725-4.065-0.616-1.725 1.109-2.587 1.479-3.327 2.341-0.739 0.862-1.232 0.37-0.985-0.924 0.246-1.294 1.848-1.047 0.184-1.602-1.663-0.554-2.525 0.247-2.217-1.663 0.308-1.909 0.37-3.203-0.185-3.203-0.554 0-1.849 1.418-0.862 2.649s0.061 1.909 0.061 1.909 0.432 0.924 1.048 1.048c0.616 0.123 1.108 1.478-0.062 1.293s-1.109 0.37-1.417-0.677c-0.308-1.048-0.554-1.294-1.725-1.602-1.17-0.308-1.293 0-2.155-0.616-0.863-0.616 0-0.862-1.294-0.862s-1.663-0.37-1.663-1.355c0-0.986-0.431-1.048-0.986-1.664-0.554-0.616-0.677-0.739-1.108-1.232-0.432-0.492-0.37-0.739-0.432-0.985-0.061-0.246-0.554-0.37-0.862-0.246-0.308 0.123-0.739 0.677-1.848 1.416s-1.848 1.047-3.142 1.047c-1.293 0-2.402-2.648-4.188-1.786-1.787 0.862-1.602 1.047-2.649 1.725-1.047 0.677-0.739 0.801-0.924 1.725s-0.554 1.047-0.061 1.786c0.492 0.739 0.554 1.232 0.492 2.772-0.061 1.54 1.109 3.634 0 4.25-1.108 0.616 1.294 0.739-2.217 0.862-3.511 0.124-2.834 0.863-5.174 0.493-2.341-0.369-3.635-0.677-4.312-0.616-0.678 0.062-1.725 0.308-0.493 1.417s1.663 0.37 1.602 1.786c-0.062 1.417-0.555 2.526 0.184 2.095 0.739-0.432 1.232 0.246 1.725 0.862s-0.801 1.91 0.493 2.957c1.293 1.047 2.402 1.663 0.431 1.663s-0.37 0.924-2.957 0.677c-2.587-0.246-2.525-0.123-2.648-0.924-0.124-0.8-1.972 0.74-1.109-1.232 0.862-1.971 0.924-2.956 0.123-3.079-0.801-0.124-0.185 0.061-2.094-0.308-1.91-0.37-3.08-1.725-3.573-0.801s0.308 1.17-1.109 1.17-1.601-0.554-2.094 1.355c-0.493 1.91-2.587 3.635-1.663 3.635s0.8 0.985 0.369 2.032c-0.431 1.048-0.308 2.464-0.308 3.573s-0.061 3.018 0.739 2.341c0.801-0.678 0.863-0.247 0.863 0.924 0 1.17-0.986 1.971-0.246 3.018 0.739 1.047-0.062 0.986 1.539 1.602 1.602 0.616 1.109 0.677 2.711 0.739 1.601 0.061 1.54-0.247 2.156 0.431s0.061 1.971 0.862 1.294c0.801-0.678 0.37-0.493 2.033-0.37s2.587-0.556 2.772 0.707c0.185 1.264-0.493 1.387 1.478 1.51 1.971 0.124 2.895 0.247 3.758 0.185 0.862-0.061 0.923 0.555 1.108-0.493 0.185-1.047 1.171-0.615 1.91-0.492s0.801 1.109 1.478 0.492c0.678-0.615 2.156-1.293 2.464-2.032s0.616-1.047 0.308-2.218c-0.308-1.17-0.924-1.601-0.185-2.217 0.74-0.616 1.109-0.308 1.171-1.232 0.061-0.924 0.8-1.725 0.862-2.156s1.047-0.739 1.355-0.616 1.602 1.17 0.678 4.435-0.37 3.388-0.801 5.174-0.739 1.971 0.37 3.573c1.108 1.601 1.355 2.156 2.648 2.772 1.294 0.616 1.725 0.985 2.711 2.464 0.985 1.478 1.909 1.971 3.141 2.525 1.232 0.555 0.185 0.709 0.216 1.325s0.831 0.308 1.355 0.646c0.523 0.339 0.924 0.432 0.647 0.924-0.277 0.493-0.986-0.123-0.893 0.277 0.092 0.401 1.385 1.109 1.047 1.479-0.339 0.369-0.801 0.524-1.448 0.185s-1.324-0.123-1.047 0.277 0.708-0.216 0.585 1.016-0.955 2.772-0.554 3.419c0.4 0.647 0.523 1.263 0.585-0.616s-0.185-3.788 0.678-3.234c0.862 0.554 1.601 1.016 1.139 2.125s-1.17 1.694-0.308 1.325c0.862-0.37 0.678-1.602 1.324-0.863 0.647 0.739 1.54 1.54 0.986 2.156s-0.123 1.324-0.092 1.725c0.03 0.4-0.647 0.955 0.369 0.985 1.017 0.031 1.94-0.554 2.402 0.308 0.463 0.863 0.863 1.109 0.185 1.017-0.677-0.093-1.447-0.678-1.878-0.555-0.432 0.124 0.77 0.77 1.786 0.955s0.061 0.462 1.047 0.493 2.156-0.246 2.187 0.4c0.031 0.647-0.893 1.355-1.263 1.14-0.37-0.216-0.616 0-0.585 0.585s0.739 0.924 1.016 1.632c0.277 0.709 1.479 1.831 1.817 2.04 0.339 0.209 1.551-0.513 1.797 0.382 0.246 0.894 0.287 1.243 0.452 1.315 0.164 0.072 0.616-0.226 0.903 0.334 0.288 0.56 0.684 1.801 0.763 0.929 0.08-0.872-0.206-1.02 0.563-0.366s1.056 1.475 1.097 0.941 0.306-0.903 0.625-0.534c0.319 0.37 0.278-0.546-0.173-0.622-0.452-0.076-1.305 0.94-1.228-0.061 0.078-1-0.345-0.302-0.442-1.165-0.096-0.862-0.096-2.71 0.972-1.807 1.067 0.904 0.89 1.573 1.636 2.121 0.745 0.549 1.937 1.127 1.937 1.127l1.139 1.391s0.846 0.536-0.126 0.536c-0.973 0-0.667 0.164-1.426-0.088-0.758-0.252-1.12-0.185-1.524 0.177s-0.322 0.485-1.185 0.445c-0.862-0.042-1.008-0.196-1.423 1.129-0.414 1.324 0.941 1.232-0.414 1.324s-1.232 0.03-2.033-0.231c-0.801-0.262-1.109-0.046-0.585 0.385 0.523 0.431 1.17 0.216 1.879 0.554 0.708 0.339 1.845 0.216 1.153 1.048-0.692 0.831-1.862 1.016-1.862 1.016l-2.71-1.14-1.694-1.509s-0.893-1.178-1.417-1.882c-0.523-0.705-1.386-1.29-0.893-0.428 0.493 0.863 1.17 2.249 1.879 2.988 0.708 0.739 1.201 1.029 1.848 1.592 0.646 0.564 0.585 1.981 1.509 2.135s1.8 0.061 3.441 0.246 3.519 0.308 4.104 0.616c0.586 0.308 0.661 0.821 0.891 1.396 0.229 0.575 0.245 0.472 1.161 0.688s0.916 1.283 0.916 1.817-0.991 0.739-1.153 1.437c-0.162 0.699 0.059 1.273-0.462 0.904-0.521-0.37-0.357-1.273-0.644-0.904-0.288 0.37 0.452 1.397-0.575 1.15-1.027-0.246-0.534 0.123-1.519-1.026-0.986-1.15-1.583-0.945-0.977 0 0.607 0.944 1.88 1.49 2.291 1.689 0.41 0.2-0.781 0.443-2.054 0.65s-2.094 0.782-2.423 1.069c-0.328 0.288-0.862 0.288-0.985 0.288s-0.329 0.451-1.602 1.642-2.915 2.751-3.736 3.655c-0.822 0.903-0.986 2.259-1.191 0.985-0.206-1.273 0.492-1.889-0.329-2.34-0.821-0.452-0.504-0.698-1.299-0.945-0.795-0.246-0.519-0.082-1.191 0.165-0.672 0.246-1.37-0.288-1.411 0.246s1.355-0.205 0.123 0.985c-1.232 1.191-0.534 0.534-0.493 1.438 0.041 0.903-1.725 1.026-2.751 1.273-1.027 0.246-0.493 0.78-1.889 0.862s-2.289 0.288-2.643 0.37c-0.355 0.082-2.737 0.534-2.737 0.534s-0.903 1.149-0.944-0.247-0.041-1.519-0.041-2.094 0.679-1.427 0.679-1.427 0.871 0.616 1.056 0.123-1.479-0.77-1.91-1.078-0.647-0.092 0.277-0.832c0.924-0.739 1.725-0.923 1.941-1.385 0.215-0.462 0.585-1.294 0.585-1.294s0.955-0.678 0.462-0.739c-0.493-0.062-0.401-0.216-1.078-1.14-0.678-0.924-1.602-1.509-2.279-1.755-0.678-0.247-0.77-0.308-0.524-1.171 0.247-0.862 0.986-0.739 1.14-1.54 0.154-0.8-0.284-0.312 0.308-1.365l0.591-1.054s-0.622 0.602-0.252-0.26c0.369-0.862 0.308-1.54-0.185-0.739-0.493 0.8-0.247 1.047-0.678 0.616-0.431-0.432-0.493-0.493-0.123-1.078 0.369-0.585 0.801-1.602 0.369-1.017-0.431 0.586-0.461 1.263-1.139 0.955s-1.14-0.87-1.448-0.804c-0.308 0.065 0.031 0.866 0.031 0.866l0.585 1.201-0.954 0.77s-1.422-0.4-0.912 0.216c0.511 0.615-0.351 0.8-0.628 0.8s-1.171 0.678-0.462 0.678c0.708 0 0.795-0.062 1.09 0.431 0.296 0.493-0.228 1.14-0.444 1.54-0.215 0.4 0.216 1.355-0.708 1.355s-2.495-0.246-2.803-0.031c-0.308 0.216-0.8 0.74-1.509 0.924-0.708 0.185-1.632-0.092-1.971-0.123s-0.123 0.514-0.37 0.827c-0.246 0.313-1.139 0.59-1.385 0.621-0.247 0.031-0.647 0.092-0.647 0.092s-0.616 0.246-0.616 1.016-0.524 1.479-0.986 1.048c-0.462-0.432-0.862-0.924-0.862-0.924s-0.955 1.293-0.832 1.848c0.124 0.554 0.647 0.277 0.647 0.924 0 0.646 0.062 0.061 0.585 0.893 0.524 0.831 0.585 1.601 1.479 1.478 0.893-0.123 1.478-0.277 1.54 0.924 0.061 1.201 0.184 2.556 0.924 3.049 0.739 0.493 0.123-0.062 1.078 0.616 0.954 0.678 1.601 1.016 0.985 1.201s-1.016-0.215-1.478 0.216-1.263 0.77-0.216 0.677c1.047-0.092 1.54-0.739 2.033-0.585s1.17 0.863 1.293 1.109c0.124 0.246 0.278-0.123 0.555 0.216 0.277 0.338 0.061 0.646 0.77 0.308 0.708-0.339 0.985-0.432 1.016 0.154 0.031 0.585 0.739 0.77 0.739 1.262 0 0.493-0.585 0.154-0.8 0.986-0.216 0.832-0.493 1.509-0.832 1.725-0.339 0.215-0.801 0.708-1.294 0.338-0.492-0.369-0.77-0.4-0.677-0.893 0.092-0.492-0.154-1.016-0.154-1.016s-0.246-0.156-0.832-0.74c-0.585-0.584-0.492-1.786-0.985-0.43-0.493 1.355-0.37 1.848-0.863 1.971-0.492 0.123-0.462 0.123-0.893 0.03-0.431-0.092-0.462-0.061-1.109 0-0.646 0.062-0.893 0.432-0.954-0.03-0.062-0.462-0.031-0.924 0.215-0.986 0.247-0.061-0.061-0.187-0.801-0.555-0.739-0.369-1.047-0.615-1.047-0.615s0.863-0.493 0.339-0.77c-0.523-0.277-0.431-0.431-0.708-0.277s-0.832 0.431-0.586 0.924c0.247 0.492 0.031 0.182 0.401 0.738 0.37 0.555 0.831 0.802 0.862 0.955 0.031 0.154-0.339 0.586-0.924 0.925-0.585 0.338-0.985 0.923-1.447 0.523s-0.924-0.708-1.047-0.893c-0.124-0.185 0.646-0.123 0.923-0.216 0.278-0.092 0.493-0.708 0.493-0.708s-0.031-0.339-0.369-0.462c-0.339-0.123-0.863-0.37-0.863-0.37s0.709-0.585-0.862 0.062-2.094 1.139-3.419 1.817c-1.324 0.678-1.386 1.325-1.755 0.678-0.37-0.647 0.339-0.77-0.709-0.924-1.047-0.154-1.17-0.062-1.416-0.462-0.247-0.401-0.339-1.048-0.339-1.048l-0.062-0.554s-0.369-0.554-0.493-0.585c-0.123-0.031-0.492 0.092-0.616 0.185-0.123 0.092 0.216 0.801 0.216 0.954 0 0.155-0.462 0.925-0.462 0.925s-0.431 0.769-0.986 0.646c-0.554-0.123-1.478-0.184-1.478-0.184s-1.509 0.492-1.417 0.708c0.093 0.215 0.924 0.215 0.863 0.37-0.062 0.154 0.246 0.328-0.739 0.441-0.986 0.113-2.495 0.513-2.495 1.252 0 0.74-0.585 0.832-1.448 0.801-0.862-0.031-0.03 0.77-1.047 0.431-1.016-0.338-1.509 0.084-1.509 0.084s0.37 0.409-1.14 0.378c-1.509-0.03-1.016-0.092-1.694-0.338-0.677-0.247-0.708-0.059-0.769 0.34-0.062 0.399-0.74 0.522-1.202 0.46-0.462-0.061-0.831-0.4-0.831-0.4s0 0.462-0.401 1.263c-0.4 0.801 0.124 0.585-0.77 0.862-0.893 0.277-1.848 0.709-1.231 1.047 0.615 0.339 1.693 1.017 0.954 1.54-0.739 0.524-0.585 0.616-1.817 0.339s-1.632 0.246-2.063-0.339c-0.432-0.585 0.061-0.523-1.263-1.016-1.325-0.493-1.017-0.216-1.633-1.078-0.616-0.863-0.646-1.14-0.831-0.801s0.123 1.294 0.708 1.971c0.255 0.296 0.691 0.965 0.973 1.502-1.153-0.575-2.291-1.176-3.414-1.8-0.29-0.252-0.487-0.527-0.536-0.882-0.164-1.191 0.616-1.739-0.288-1.917-0.903-0.178-1.19-0.835-1.683-0.876s-0.164 0.37-1.355 0.452c-0.591 0.041-0.888 0.162-1.229 0.164-1.831-1.187-3.615-2.441-5.348-3.758 0.938-1.14 0.848-2.001 0.848-2.001l-2.269-1.525-3.013-0.855s1.05-0.896 2.898-0.446 2.958 2.608 2.896 1.746c-0.061-0.863-1.108-1.274-1.662-1.869-0.555-0.594 1.909 0.207 2.402 0.823s1.048 2.896 1.725 2.403c0.678-0.493 0.801-1.294 0.801-1.294l-1.047-1.047 1.54-0.758 2.279-1.213s0.123 0 0-0.677c-0.123-0.678-0.534-0.822-0.328-1.089 0.205-0.267 0.182-0.246-0.197-0.862-0.378-0.616-0.871-1.335-0.953-1.602s0.431-0.431 0.595 0c0.164 0.432 0.452 1.048 0.452 1.048s0.78 1.416 0.965 1.252 0.328-0.595 0.328-0.595l-0.636-1.499s-0.062-0.39-0.144-0.76 0.041-0.452-0.164-0.616-0.657 0.575-0.205-0.164c0.451-0.739 0.287-0.739 0-1.068-0.288-0.329-0.598-0.411-0.238-0.739 0.361-0.329 0.854 0.493 1.059 0.246 0.205-0.246 0.452-0.041 0.328-0.534-0.123-0.492 0.518-0.78 0.033-1.067-0.484-0.288-1.164 0.41-1.42 0.328-0.255-0.082-0.378-0.057-0.461-0.398-0.082-0.341-0.369-0.505 0-0.752 0.37-0.246-0.082-0.574-0.123-0.821-0.041-0.246 2.177 0.698 1.355 0-0.821-0.698-0.985-0.739-1.232-1.396-0.246-0.657-0.698-1.232-0.164-1.232s0.945 0.739 1.273 0.739c0.329 0 0.109-0.37-0.294-0.739-0.404-0.37-1.102 0.041-1.348-0.493-0.247-0.534-0.37-0.575-0.74-0.903-0.369-0.329-0.328-0.411 0.165-0.822 0.492-0.41 1.742 0.165 1.569 0-0.173-0.164-0.389-0.164-0.615-0.431-0.225-0.267-0.492-0.647-0.051-0.575 0.442 0.072 0.75 0.165 0.955 0.339 0.205 0.175 0.852 0.554 0.503 0.144-0.349-0.411-0.606-0.288-0.554-0.627 0.051-0.338 0.184-0.102 0.143-0.431-0.041-0.328-0.041-0.533 0.124-0.616 0.164-0.082 0.554 0.103 0.636 0.267 0.082 0.165 0.493 0.247 0.287-0.082-0.205-0.328-0.616-0.575-0.431-0.903 0.185-0.329 0.37-0.596 0.37-0.596l-0.267-0.657-0.082-1.129s-0.247-1.023-0.534-1.597c-0.287-0.576-0.739-1.844-0.739-1.844h-0.575l0.123 2.11s-0.205 1.261-0.328 1.384c-0.124 0.123-0.411 0.24-0.616-0.17-0.206-0.411-0.329-0.937-0.329-0.937s0.041-0.515-0.164-0.803c-0.206-0.287-0.329-1.043-0.329-1.043s-0.821-0.357-1.314-1.63-0.815-1.267-1.064-2.334c-0.25-1.068 0.161-1.681-0.825-2.297-0.985-0.616-1.15-0.245-1.437-1.394-0.288-1.15 0.164-1.232-0.37-2.258-0.534-1.027-0.862-1.027-0.944-1.889s-0.417-1.706-0.414-2.413c3e-3 -0.708-0.537-1.282 0-1.775s0.25-0.452 0.537-0.493 0.205 0.329 0.78 0 1.027 0.123 0.575-0.329c-0.452-0.451-0.616-0.656-0.616-0.656s-0.287 0.328-0.41-0.247c-0.124-0.575-0.658-0.527-0.575-0.818 0.082-0.291 0.575-0.783 0.575-0.783s-0.986-0.083-0.493-1.068c0.493-0.986 0.41-0.78 0.41-1.561 0-0.78 0.206-1.314 0.206-1.314l0.698-1.177 0.616-0.794s-0.534-0.041 0.41-0.698c0.945-0.657 0.863 0.616 1.109-0.862 0.247-1.479 0.168-2.095 0.168-2.095l0.665-0.862s0.235-0.519 0.194-1.553 0-0.377 0-1.65 0-1.561 0.493-2.423c0.492-0.862 1.601-1.273 1.806-1.766 0.206-0.493 0.206-1.519 0.206-1.519s0.041-0.37 0.164-0.986-0.082-0.452-0.616 0.164-0.986-0.082-0.986-0.082-0.123-0.492 0.411-1.067 1.437-1.52 1.437-1.52 0.329 0.247 0.575-0.821c0.247-1.068 0.511-0.78 0.502-1.643-9e-3 -0.862-0.337-1.971 1.059-3.121s0.657-0.657 1.232-1.971 1.232-2.072 1.807-2.514 2.299-2.268 1.232 0c-1.068 2.268-1.627 2.139-2.087 2.901-0.459 0.763 0.033 1.584-0.624 3.638-0.657 2.053-1.724 4.097-1.971 5.539-0.246 1.442-0.164 2.905-1.232 5.335-1.067 2.431-1.725 3.827-0.739 3.17s2.218 0.493 2.3-0.904c0.082-1.396 0.164-3.49 0.164-3.49s0-0.37 0.903-2.505c0.904-2.135 1.479-2.218 1.889-2.628 0.411-0.411 0.74-1.725 0.74-1.725s1.806-0.739 1.806-1.396-0.739-0.329 0-1.725c0.74-1.396-0.246-0.246 0.74-1.396 0.985-1.15 1.642-2.382 1.642-2.382l2.546-3.203s0-0.739 0.493-1.643c0.493-0.903 1.345-0.831 0.791-1.509-0.555-0.677-1.294-0.862-0.924-1.078 0.369-0.215 0.462-0.339 0.185-0.585-0.278-0.246 0.687-1.263 1.098-2.495s0.985-1.355 1.766-2.094c0.78-0.739 0.739-0.739 1.232-1.602 0.492-0.862-0.124-0.205 1.478-0.78s2.259-1.396 2.628-1.642c0.37-0.247 1.13-0.411 3.778-1.766 2.649-1.355 3.388-2.033 4.682-2.464 1.293-0.431 1.478-0.986 2.464-0.739 0.985 0.246 1.478 0.8 2.094 0.492s0.246-1.045 1.109-0.553c0.862 0.492 0.985 0.411 1.232-0.165 0.246-0.575 1.848-1.622 1.848-1.622s-1.232-0.555 0.8-1.787c1.857-1.125 3.659-2.041 4.333-1.863 0.026-0.113 0.212-0.28 0.657-0.539 1.909-1.109 2.464-1.848 2.957-2.402 0.492-0.555 0.862-1.725 0.8-2.095-0.061-0.369 0.123-0.862 0.801-1.17s1.602-0.123 2.341-0.616-0.185-0.678 1.17-1.294 2.095-0.677 2.095-0.677l0.739 0.308 1.971-0.308s0.862-0.493 0.924-0.863c0.061-0.369-0.431-0.677 0.308-0.985s1.232 0 1.232 0 1.909 0.308 1.54 0.985c-0.37 0.678-1.725 0.555-0.739 1.171 0.985 0.616 1.416 0.862 1.848 1.109 0.431 0.246 0.616 0.431 1.355-0.308s1.17 0.123 0.739-0.739c-0.431-0.863-0.458-1.109 0.171-1.171 0.63-0.062 1.061-0.431 1.061-0.431s0.801-0.335 0.801-0.753c0-0.417-0.616-0.294-0.555-0.849 0.062-0.554-0.862-0.369-0.431-0.924 0.431-0.554-0.37-0.8-0.062-1.416s-0.616-0.678 0.062-1.54c0.678-0.863 0.246-1.602-0.986-1.971-1.232-0.37-0.739 0.616-1.416-0.678-0.678-1.293-0.493-1.355-1.068-1.519-0.575-0.165-1.232-0.534-2.218-1.027-0.985-0.493-0.862 0.493-1.355-0.945-0.493-1.437 0-1.437-0.985-2.258-0.986-0.821-0.822-1.766-0.822-1.766s3.737 0.452 2.259-0.493c-1.478-0.944-1.519-1.108-1.889-1.519s-0.657-0.863-0.657-0.863l-0.657-1.19-0.164-1.397s0.328 0.288 1.437-0.451c1.109-0.74 1.355-0.781 1.519-1.027 0.165-0.246 0.657-1.314 2.013-2.669 1.355-1.355 1.724-1.663 2.279-2.095 0.554-0.431 1.108-0.246 1.047-0.985-0.062-0.739-0.123-0.431 1.293-0.863 1.417-0.431 2.341-0.862 3.327-0.862 0.985 0 3.264-0.369 3.942-0.369s1.109 0.061 0.678-0.432c-0.432-0.493-1.232-2.34-2.28-3.388-1.047-1.047-1.355-1.663-2.833-2.156-1.478-0.492-2.341-0.923-3.265-1.231-0.92-0.307-1.534-1.651-1.539-1.663 27.015 4.986 49.678 22.387 61.85 46.067l-1.793-0.239z" fill="#a2e363"/>
		</g>
		<g transform="matrix(.35278 0 0 -.35278 102.18 124.49)">
			<path d="m0 0c-0.585 0.431-0.862 0.986-0.862 0.246 0-0.739-0.555-0.554 0-1.232 0.554-0.677 0.585-0.739 0.061-0.739-0.523 0-0.677-0.308-0.308-0.862 0.37-0.555-0.123-1.14 0.678-0.801s1.386 0.708 1.755 1.047c0.37 0.339 0.216 0.647 0.863 0.247 0.647-0.401 1.17-0.493 1.694-0.247 0.523 0.247 1.047 0.739 0 0.739s-1.325 0-1.325 0.401c0 0.4 0.432 0.523-0.739 0.708-1.17 0.185-1.817 0.493-1.817 0.493" fill="#a2e363"/>
		</g>
		<g transform="matrix(.35278 0 0 -.35278 103.04 125.58)">
			<path d="m0 0c-0.922 0.068-1.263 0.262-1.632-0.408-0.37-0.67-0.37-1.409 0.493-0.978 0.862 0.431 0.831 0.428 1.293 0.661 0.462 0.232 0.489 0.677-0.154 0.725" fill="#a2e363"/>
		</g>
		<g transform="matrix(.35278 0 0 -.35278 104.26 125.55)">
			<path d="m0 0c-1.312 0.038-1.756-0.252-1.17-0.797 0.585-0.545 0.985-0.915 1.17-0.299s0.462 1.083 0 1.096" fill="#a2e363"/>
		</g>
		<g transform="matrix(.35278 0 0 -.35278 104.42 128.47)">
			<path d="m0 0c-0.39-0.022-0.452-0.328-0.595-0.739-0.144-0.411 0-0.267-0.37-0.554-0.37-0.288-0.144-0.452 0.287-0.637 0.432-0.185 0.883-0.308 0.883 0.288 0 0.595-0.246 0.739 0.206 1.047 0.451 0.308-0.041 0.616-0.411 0.595" fill="#a2e363"/>
		</g>
		<g transform="matrix(.35278 0 0 -.35278 113.92 132.46)">
			<path d="m 0,0 c -2.068,-0.05 -4.34,1.036 -3.05,0 1.291,-1.036 1.722,-1.423 2.646,-1.383 C 0.52,-1.344 0,0 0,0" fill="#a2e363"/>
		</g>
		<g transform="matrix(.35278 0 0 -.35278 115.21 133.65)">
			<path d="m0 0c-0.665 0.049-0.117-0.136-0.699-1.06-0.425-0.674-1.069-1.448-0.952-1.576 0.064-0.07 0.339 0.063 0.49 0.159 0.266 0.171 0.427 0.406 0.598 0.76 0 0 0.264 0.545 0.563 1.717" fill="#a2e363"/>
		</g>
		<g transform="matrix(.35278 0 0 -.35278 115.5 134.32)">
			<path d="m0 0c0.339-0.359 0.585-0.438 0.246-0.753-0.338-0.315-0.092-0.024-0.431-0.539s-0.394-1.101-0.659-0.546-0.055 1.256 0.225 1.567c0.28 0.312 0.619 0.271 0.619 0.271" fill="#a2e363"/>
		</g>
		<g transform="matrix(.35278 0 0 -.35278 115.89 131)">
			<path d="m0 0c-0.471-0.194-0.611-0.493-0.675-1.016-0.064-0.524-0.249-0.986-0.249-0.986l-0.246-0.739s0.308-0.4 0.154-0.801c-0.154-0.4-0.154-0.893-0.154-0.893s-0.468-0.077-0.558-0.301c-0.089-0.223-0.945 0.363-0.224-0.438 0.72-0.801 0.597-0.55 0.443-0.924-0.154-0.375 0.123-0.893 0.585-0.739s-0.372 0.496 1.339 0.325c1.71-0.171 1.926 0.753 2.08 0.352 0.154-0.4 0.22-0.431 0.449-0.123 0.228 0.308 1.212 0.77 0.735 0.154-0.476-0.616-1.364-1.238-0.735-1.373 0.629-0.136 1.614 0.237 1.429 0.99-0.184 0.753 0 1.553 0.278 0.753 0.277-0.801-0.031-1.479 0.616-1.417 0.646 0.061 0.744-0.158 1.108-0.354 0.365-0.196 1.048-0.231 0.586 0.662s-0.154 2.033-0.647 1.54-1.047-0.647-1.294 0.123c-0.246 0.77-0.185 0.801-0.677 1.232-0.493 0.431 0.336 1.201-0.664 1.232-0.999 0.031-1.092-0.801-1.708-0.431-0.616 0.369-0.612 1.078-1.061 0.554-0.448-0.524-0.787-1.109-1.002-0.647-0.216 0.462-0.647 0.328-0.339 0.965s0.954 2.516 0.431 2.3" fill="#a2e363"/>
		</g>
		<g transform="matrix(.35278 0 0 -.35278 92.857 121.2)">
			<path d="m0 0c-1.191 0.862-3.162 0.411-1.191 1.478 1.971 1.068 2.053 0.657 2.834 1.232 0.78 0.575 1.601 0.657 1.601 0.657s2.136 0 2.546-0.41c0.411-0.411 1.396-0.616 0.37-0.74-1.027-0.123-1.93-0.533-1.93-0.533l-1.232-0.575-1.273-0.945z" fill="#a2e363"/>
		</g>
		<g transform="matrix(.35278 0 0 -.35278 95.262 120.87)">
			<path d="m0 0c0.034 0.388 0.164 0.739-0.657 0.493-0.821-0.247-1.355-0.044-1.889-0.207s-0.123-0.163-0.657-0.491c-0.534-0.329-1.322-0.74-1.322-0.74l1.076-0.287s1.149-0.452 0.287-0.452-3.08 0.123-2.094-0.246c0.985-0.37 2.176-0.123 2.956-0.493 0.781-0.37 0.724-0.493-0.418-0.493s-2.841 0.781-1.807 0c1.034-0.78 1.774-0.328 1.363-0.862s-0.37-0.78 0.862-0.657 0.863-0.186 1.93-0.031c1.068 0.154 2.054 0.647 2.054 0.647s0.575 0.821 1.519 0.205c0.945-0.616 2.095-1.848 2.834-1.766 0.739 0.083 0.616 0.411 0.205 0.863-0.411 0.451-0.286 0.657 0.329 0.78s1.355 0.37 0.492 0.739c-0.862 0.37-0.862 0.904-0.862 1.478 0 0.575-0.247 1.068-0.452 1.274-0.205 0.205 0.698 1.19-0.41 0.041-1.109-1.15-1.274-1.972-1.479-1.561s0.041 1.273 0.041 1.273 0.164 0.739-0.492 0.616c-0.658-0.123-0.411 0.082-0.986-0.328-0.575-0.411-0.739-0.781-0.821-0.288-0.083 0.493 0.451 0.863-0.165 0.78-0.616-0.082-0.739-0.082-0.903-0.246s-0.574-0.492-0.534-0.041" fill="#a2e363"/>
		</g>
		<g transform="matrix(.35278 0 0 -.35278 98.934 121.04)">
			<path d="m0 0c0.585-0.462 0.986-1.016 0.986-1.016s0.985-0.031 0.246-0.709c-0.739-0.677-0.739-0.77-1.232-0.955-0.493-0.184-0.339-0.954-0.862-0.215-0.524 0.739-0.37 0.776-0.74 0.973-0.369 0.197-0.923 0.752-0.153 0.813 0.769 0.062 0.923 0.093 1.016 0.647 0.092 0.554 0.739 0.462 0.739 0.462" fill="#a2e363"/>
		</g>
		<g transform="matrix(.35278 0 0 -.35278 99.879 121.72)">
			<path d="m0 0c-0.739-0.265-1.755-0.511-1.817-0.973s0.339-1.356 0.339-1.356 0.831 0.155 1.016 0.278 0.616 0.184 1.201 0.184 1.14 0.142 0.709 0.703c-0.432 0.56-1.448 1.164-1.448 1.164" fill="#a2e363"/>
		</g>
		<g transform="matrix(.35278 0 0 -.35278 99.738 121.04)">
			<path d="m0 0c-0.308-0.19-0.308-0.283-0.308-0.807 0-0.523-0.185-0.894 0.154-0.801s0.37 0.185 0.708 0.247c0.339 0.062-0.677-0.4 0.493 0s1.232 0.647 1.417 0.893c0.185 0.247 1.201 0.535 0 0.468s-2.464 0-2.464 0" fill="#a2e363"/>
		</g>
		<g transform="matrix(.35278 0 0 -.35278 101.95 120.95)">
			<path d="m0 0c-0.493 0.216-0.416-0.03-0.847-0.231-0.431-0.2-0.362 0.477-1.039-0.262-0.678-0.739-0.859-0.123-0.674-0.739s0.433-0.936 0.433-0.936 0.771-0.142 0.617-0.604 0.278-0.751 0.555-0.56c0.277 0.19 0.77 0.252 1.324 0.252 0.555 0 1.388-0.031 1.864-0.092 0.477-0.062 1.34-0.062 1.34-0.062s0.338-0.862 0.954-0.462 0.462 1.201 1.202 0.708c0.739-0.492 1.324-0.615 1.324-0.615l0.986-0.609 0.77-1.628h1.54s0.462-0.329 0.554-0.545c0.092-0.215 0.801 1.56 1.232 0.544 0.431-1.017 0.277-1.561 0.277-1.561s-0.678-0.164-0.832-0.626c-0.153-0.462 0.278-0.498-0.277-0.683-0.554-0.185-0.523-0.264-1.201-0.295s0.216-0.271-1.14 6e-3c-1.355 0.277-1.201 0.589-1.632 0.219s-0.665-0.183-0.548-0.891c0.117-0.709 0.949-1.078 0.949-1.078s2.002-0.307 2.433 0.278 1.016 0 1.878-0.154c0.863-0.154 2.002-0.677 2.341-1.109 0.339-0.431-0.4-0.246 1.54-0.523s2.095-0.277 2.895-0.462c0.801-0.185 1.643-0.521 1.479-0.321-0.493 0.598-0.924 1.06-1.787 1.337-0.862 0.278-1.786 0.955-1.17 0.801s1.694-0.578 1.694-0.578 1.694-0.531 1.909-0.715c0.216-0.185 1.633-1.109 0.77-0.124-0.862 0.986-0.862 1.294-0.862 1.294l-1.294 1.593s-0.523 0.316-1.17 0.44c-0.647 0.123-1.324 0.708-1.324 0.708s0.031 0.77-0.555 0.862c-0.585 0.093 0.401 0.709 0.832 0.339 0.431-0.369 0.523-0.677 1.201-0.893s0.308 0.277 1.201-0.37c0.893-0.646 1.355-0.184 1.355-0.184l0.093 0.954-0.185 1.068s-1.078-0.011-1.663 0c-0.585 0.01-0.986 0.626-0.986 0.626l-0.893 0.216-1.756 0.277s-1.416 0.185-1.201 0.585c0.216 0.401 0.247 0.955 0.247 0.955l-0.739 0.585s-0.924 0.062-1.325 0.031c-0.4-0.031-0.985 0.493-0.985 0.493s0 0.4-1.201 0.431c-1.202 0.031-1.171 0.031-1.448 0.092-0.277 0.062-0.062 1.079-1.571 1.171s-1.686 0.831-2.352 0.308c-0.666-0.524-1.005-1.108-1.59-0.308-0.585 0.801-0.276 1.447-1.309 1.417-1.032-0.031-1.894 0.092-1.586-0.601s0.862-1.432 0.862-1.432c-0.677-0.524-0.462-0.616-0.924-0.647s-0.523 0.216-0.493 0.647c0.031 0.431 0.154 0.246 0.031 0.955z" fill="#a2e363"/>
		</g>
		<g transform="matrix(.35278 0 0 -.35278 103.3 120.7)">
			<path d="m0 0c-0.524-0.554-0.801-0.708-0.308-0.939s1.078-0.446 1.509 0 1.509 0.693 0.647 0.939-1.848 0-1.848 0" fill="#a2e363"/>
		</g>
		<g transform="matrix(.35278 0 0 -.35278 99.977 120.19)">
			<path d="m0 0c0.092-0.585 0.154-0.924 0.154-0.924s0.277-0.308 0.647-0.647c0.369-0.339 0.924-0.504 1.293-0.421 0.37 0.082 0 0.329 0.709 0.514 0.708 0.184 0.985 0.034 1.94 0.14s2.033 0.106 2.495 0.198c0.462 0.093 0.739 0.586 0.739 0.586s0.185 0.338-1.602 0.338c-1.786 0-1.473-0.184-2.384-0.061s-0.911 0.985-1.404 0.493c-0.493-0.493 0.093-0.816-0.554-1.04-0.647-0.223-0.616-0.7-0.955 0-0.339 0.701-0.277 0.762-0.277 1.04 0 0.277-0.801-0.216-0.801-0.216" fill="#a2e363"/>
		</g>
		<g transform="matrix(.35278 0 0 -.35278 104.23 118.97)">
			<path d="m0 0c-1.787 0.053-2.757 0.031-2.757 0.031l-2.317 0.042s-0.682 0.25-0.866-0.147c-0.185-0.396-0.803-0.453-0.803-0.453s-1.202 1.464-1.11 0.687c0.093-0.778 0.092-0.777 0.092-0.777s0.739-0.745 0.739-0.96c0-0.216-0.185-0.868-0.185-0.868h-0.667v0.566l1.191-1.566h0.739l-0.955 0.105-1.879 0.577s-0.395-0.651 0.727-0.651c1.121 0 0.782-0.225 2.261 0.241 1.478 0.465 1.826 0.602 2.607 0.602s-0.79-0.223 1.243 0.023c2.032 0.246 2.464 0.227 2.402 0.781-0.062 0.555-0.154 0.529-0.154 1.022s0.339 0.726-0.308 0.745" fill="#a2e363"/>
		</g>
		<g transform="matrix(.35278 0 0 -.35278 99.608 119.68)">
			<path d="m0 0c0.043 0.019 0.271 0.12 0.493 0 0.021-0.011 0.227-0.127 0.246-0.328 0.025-0.258-0.274-0.482-0.534-0.534-0.195-0.039-0.502-7e-3 -0.595 0.185-0.11 0.224 0.125 0.56 0.39 0.677" fill="#a2e363"/>
		</g>
		<g transform="matrix(.35278 0 0 -.35278 98.949 120.11)">
			<path d="m0 0c0.213-0.07 0.242-0.47 0.246-0.534 0.03-0.412-0.225-0.695-0.267-0.739-0.101-0.109-0.272-0.292-0.492-0.267-0.255 0.029-0.452 0.32-0.452 0.575 0 0.208 0.129 0.344 0.349 0.575 0.213 0.224 0.43 0.451 0.616 0.39" fill="#a2e363"/>
		</g>
		<g transform="matrix(.35278 0 0 -.35278 99.441 120.53)">
			<path d="m0 0c0.29 0.278 0.995 8e-3 1.047-0.287 0.039-0.219-0.283-0.447-0.349-0.493-0.097-0.069-0.365-0.258-0.575-0.165-0.279 0.125-0.367 0.711-0.123 0.945" fill="#a2e363"/>
		</g>
		<g transform="matrix(.35278 0 0 -.35278 99.354 120.19)">
			<path d="m0 0c-0.025-0.116 0.103-0.229 0.123-0.246 0.252-0.222 0.771-0.114 0.842 0.102 0.036 0.11-0.046 0.24-0.123 0.308-0.258 0.226-0.796 0.046-0.842-0.164" fill="#a2e363"/>
		</g>
		<g transform="matrix(.35278 0 0 -.35278 98.659 119.26)">
			<path d="m0 0c-0.214 0.103-0.46 0.098-0.944 0.082-0.593-0.019-0.891-0.031-0.945-0.164-0.08-0.198 0.302-0.533 0.513-0.678 0.523-0.358 1.083-0.294 1.253-0.267 0.215 0.035 0.612 0.099 0.677 0.329 0.069 0.243-0.266 0.559-0.554 0.698" fill="#a2e363"/>
		</g>
		<g transform="matrix(.35278 0 0 -.35278 99.231 119.41)">
			<path d="m0 0c-0.293-0.01-0.507-0.312-0.452-0.575 0.038-0.179 0.196-0.319 0.37-0.349 0.265-0.046 0.571 0.16 0.575 0.452 3e-3 0.258-0.233 0.481-0.493 0.472" fill="#a2e363"/>
		</g>
		<g transform="matrix(.35278 0 0 -.35278 97.304 119.89)">
			<path d="m0 0c0.167-0.101 0.029-0.363 0.246-0.657 0.159-0.214 0.324-0.201 0.35-0.349 0.032-0.191-0.208-0.432-0.452-0.513-0.397-0.133-0.965 0.101-1.068 0.533-0.082 0.342 0.168 0.637 0.247 0.719 0.173 0.182 0.5 0.375 0.677 0.267" fill="#a2e363"/>
		</g>
		<g transform="matrix(.35278 0 0 -.35278 95.464 119.95)">
			<path d="m0 0c0.169 0.261 0.475 0.318 0.862 0.39 0.369 0.069 0.66 0.045 0.945 0.021 0.413-0.036 0.652-0.057 0.944-0.185 0.163-0.071 0.675-0.296 0.863-0.801 0.017-0.047 0.165-0.445 0-0.595-0.129-0.117-0.382-0.025-0.719 0.102-0.691 0.261-0.821 0.514-1.273 0.534-0.053 3e-3 -0.22-0.026-0.554-0.082-0.798-0.134-0.966-0.213-1.088-0.103-0.159 0.143-0.122 0.498 0.02 0.719" fill="#a2e363"/>
		</g>
		<g transform="matrix(.35278 0 0 -.35278 94.487 119.56)">
			<path d="m0 0c0.018 0.229 0.627 0.345 0.76 0.37 0.363 0.068 0.657 0.124 0.842-0.062 0.181-0.183 0.203-0.546 0.061-0.657-0.147-0.115-0.349 0.132-0.78 0.123-0.427-9e-3 -0.809-0.264-0.801-0.287 5e-3 -0.015-0.418 0.143-0.39 0.222 0.044 0.122 0.294 0.114 0.308 0.291" fill="#a2e363"/>
		</g>
		<g transform="matrix(.35278 0 0 -.35278 95.725 119.35)">
			<path d="m0 0c-0.1-0.044-0.39-0.173-0.39-0.349 0-0.203 0.389-0.396 0.719-0.39 0.057 1e-3 0.374 0.013 0.595 0.267 0.062 0.071 0.217 0.249 0.164 0.39-0.084 0.226-0.666 0.269-1.088 0.082" fill="#a2e363"/>
		</g>
		<g transform="matrix(.35278 0 0 -.35278 96.833 119.4)">
			<path d="m0 0c-0.375 0.13-0.861 0-0.903-0.205-0.036-0.172 0.241-0.387 0.472-0.473 0.378-0.139 0.877-0.021 0.924 0.185 0.039 0.174-0.241 0.406-0.493 0.493" fill="#a2e363"/>
		</g>
		<g transform="matrix(.35278 0 0 -.35278 97.572 120.71)">
			<path d="m0 0c0.32 0.266 0.991 0.084 1.129-0.308 0.105-0.296-0.133-0.598-0.164-0.636-0.185-0.229-0.536-0.401-0.801-0.288-0.398 0.17-0.512 0.944-0.164 1.232" fill="#a2e363"/>
		</g>
		<g transform="matrix(.35278 0 0 -.35278 104.73 122.71)">
			<path d="m0 0c0.327-0.117 0.629-0.521 0.554-0.924-0.085-0.461-0.608-0.626-0.677-0.647-0.537-0.16-1.211 0.12-1.294 0.493-0.108 0.492 0.777 1.307 1.417 1.078" fill="#a2e363"/>
		</g>
		<g transform="matrix(.35278 0 0 -.35278 113.78 134.11)">
			<path d="m0 0c0.464-0.111 0.445-0.866 1.047-1.047 0.384-0.116 0.691 0.101 0.76-0.021 0.08-0.141-0.242-0.611-0.637-0.657-0.352-0.04-0.463 0.293-1.026 0.534-0.707 0.303-1.189 0.059-1.273 0.267-0.113 0.278 0.612 1.048 1.129 0.924" fill="#a2e363"/>
		</g>
		<g transform="matrix(.35278 0 0 -.35278 107.04 149.1)">
			<path d="m0 0c-0.271-0.208-0.262-0.853 0-1.232 0.23-0.333 0.515-0.26 0.657-0.575 0.166-0.368-0.158-0.61 0-1.068 0.086-0.248 0.307-0.539 0.534-0.533 0.345 8e-3 0.565 0.699 0.657 0.985 0.137 0.43 0.274 0.859 0.123 1.314-0.298 0.896-1.56 1.424-1.971 1.109" fill="#a2e363"/>
		</g>
		<g transform="matrix(.35278 0 0 -.35278 106.21 149.55)">
			<path d="m0 0c0.328 0.182 0.825 0.02 0.986-0.37 0.136-0.33-4e-3 -0.742-0.329-0.903-0.265-0.132-0.589-0.064-0.78 0.123-0.313 0.308-0.262 0.937 0.123 1.15" fill="#a2e363"/>
		</g>
		<g transform="matrix(.35278 0 0 -.35278 106.88 150.58)">
			<path d="m0 0c0.185-0.015 0.299-0.252 0.493-0.657 0.29-0.605 0.492-1.027 0.287-1.396-0.202-0.365-0.76-0.608-1.15-0.411-0.427 0.217-0.415 0.848-0.41 1.068 0.014 0.687 0.438 1.424 0.78 1.396" fill="#a2e363"/>
		</g>
		<g transform="matrix(.35278 0 0 -.35278 107.88 150.33)">
			<path d="m0 0c-0.403-0.027-0.814-0.391-0.78-0.657 0.038-0.297 0.607-0.279 0.821-0.78 0.105-0.247 0.019-0.373 0.164-0.534 0.176-0.196 0.546-0.282 0.781-0.123 0.275 0.186 0.225 0.614 0.205 0.78-0.072 0.603-0.574 1.356-1.191 1.314" fill="#a2e363"/>
		</g>
		<g transform="matrix(.35278 0 0 -.35278 108.14 151.58)">
			<path d="m0 0c-0.245-0.127-0.293-0.49-0.205-0.739 0.099-0.283 0.417-0.541 0.698-0.452 0.29 0.093 0.416 0.517 0.287 0.821-0.126 0.301-0.511 0.51-0.78 0.37" fill="#a2e363"/>
		</g>
		<g transform="matrix(.35278 0 0 -.35278 108.88 151.67)">
			<path d="m0 0c-0.294-0.125-0.307-0.707-0.288-0.944 9e-3 -0.11 0.058-0.701 0.534-0.986 0.064-0.038 0.478-0.275 0.781-0.082 0.329 0.21 0.254 0.758 0.246 0.821-0.097 0.721-0.891 1.354-1.273 1.191" fill="#a2e363"/>
		</g>
		<g transform="matrix(.35278 0 0 -.35278 110.15 153.19)">
			<path d="m0 0c-0.512-0.094-1.032-0.581-0.945-1.027 0.068-0.343 0.466-0.506 0.534-0.533 0.421-0.172 0.983-0.067 1.273 0.328 0.151 0.205 0.303 0.589 0.124 0.904-0.209 0.363-0.716 0.378-0.986 0.328" fill="#a2e363"/>
		</g>
		<g transform="matrix(.35278 0 0 -.35278 101.29 153.8)">
			<path d="m0 0c-0.137 0.591 2.017 1.721 3.86 2.3 2.28 0.715 4.239 0.634 5.421 0.575 1.709-0.086 3.035-0.392 4.188-0.658 1.981-0.456 2.972-0.684 3.778-1.067 0.24-0.114 0.537-0.274 0.986-0.329 0.732-0.089 1.023 0.205 1.478 0 0.391-0.175 0.275-0.436 0.74-0.821 0.529-0.438 1.186-0.519 1.642-0.575 0.838-0.103 1.156 0.093 1.396-0.164 0.249-0.265 0.217-0.803 0-1.15-0.376-0.605-1.296-0.612-2.135-0.657-3.718-0.199-5.262-1.102-5.749-0.329-0.359 0.572 0.238 1.453-0.164 1.725-0.351 0.237-0.867-0.39-1.479-0.164-0.531 0.196-0.422 0.772-0.985 1.15-0.325 0.218-0.543 0.148-2.054 0.082-1.693-0.074-2.072-0.014-2.463 0.164s-0.303 0.251-0.904 0.575c-0.637 0.343-1.676 0.767-1.889 0.493-0.15-0.194 0.22-0.6 0.082-0.739-0.181-0.183-0.805 0.535-1.642 0.492-0.374-0.018-0.37-0.168-1.479-0.739-1.134-0.584-1.506-0.617-1.807-0.575-0.082 0.012-0.75 0.106-0.821 0.411" fill="#a2e363"/>
		</g>
		<g transform="matrix(.35278 0 0 -.35278 110.06 154.34)">
			<path d="m0 0c0.356 0.509 1.273-0.04 2.957 0.123 1.194 0.116 1.278 0.445 2.772 0.555 1.114 0.082 1.6-0.062 1.786-0.124 0.684-0.227 0.673-0.471 1.54-0.862 0.988-0.445 1.555-0.377 1.663-0.739 0.083-0.28-0.158-0.652-0.431-0.862-0.801-0.616-1.691 0.298-3.203-0.185-0.434-0.139-0.499-0.258-1.109-0.431-0.745-0.212-1.038-0.145-1.294-0.432-0.208-0.233-0.099-0.375-0.369-0.924-0.204-0.414-0.306-0.622-0.493-0.739-0.58-0.363-1.222 0.551-2.587 0.555-0.667 1e-3 -0.808-0.216-1.294-0.062-0.737 0.234-1.252 1.003-1.108 1.232 0.163 0.26 1.054-0.375 1.848 0 0.629 0.298 1.093 1.018 0.924 1.355-0.198 0.393-1.131 0.013-1.54 0.555-0.2 0.263-0.251 0.715-0.062 0.985" fill="#a2e363"/>
		</g>
		<g transform="matrix(.35278 0 0 -.35278 107.28 118.68)">
			<path d="m0 0c-1.015-0.173-1.673-0.026-3.08-0.308-0.396-0.079-0.899-0.202-1.232-0.616-0.217-0.27-0.158-0.409-0.37-0.616-0.499-0.487-1.262-0.133-1.416-0.431-0.169-0.326 0.59-1.045 1.047-1.478 0.542-0.514 0.812-0.77 1.109-0.863 0.903-0.281 1.377 0.478 2.587 0.37 0.385-0.035 0.688-0.167 1.293-0.431 0.825-0.361 1.345-0.699 2.526-1.479 2.471-1.631 2.735-1.825 3.265-1.786 0.238 0.017 0.705 0.095 1.231-0.123 0.077-0.032 0.754-0.32 0.74-0.678-0.016-0.391-0.843-0.468-0.863-0.862-0.015-0.311 0.484-0.573 0.801-0.739 0.334-0.176 0.69-0.362 1.047-0.247 0.396 0.128 0.438 0.513 0.678 0.493 0.164-0.014 0.257-0.204 0.616-0.924 0.256-0.514 0.384-0.77 0.431-0.862 0.354-0.685 0.53-1.028 0.801-1.294 0.4-0.394 0.583-0.3 1.109-0.739 0.405-0.339 0.532-0.592 0.8-0.924 0.937-1.159 2.325-1.707 2.403-1.602 0.056 0.077-0.539 0.56-0.493 0.616 0.055 0.068 0.965-0.585 2.341-1.54 1.963-1.362 2.32-1.565 2.895-1.724 0.865-0.24 0.894-0.013 1.786-0.308 0.768-0.255 1.264-0.595 2.218-0.739 0.103-0.016 0.437-0.064 0.862 0 0.344 0.051 0.776 0.115 0.924 0.369 0.204 0.35-0.206 0.932-0.555 1.417-0.957 1.331-1.603 1.347-2.217 2.464-0.351 0.638-0.205 0.752-0.554 1.17-0.617 0.74-1.364 0.734-1.479 1.294-0.05 0.243 0.07 0.47 0.308 0.924 0.499 0.947 0.928 0.986 0.924 1.355-5e-3 0.475-0.845 0.939-2.525 1.848-0.646 0.349-0.864 0.435-1.048 0.739-0.361 0.597 0.019 1.028-0.246 1.91-0.162 0.537-0.604 1.378-1.17 1.416-0.155 0.011-0.254-0.043-1.54-0.862-0.423-0.27-0.588-0.375-0.739-0.308-0.262 0.115-0.354 0.683-0.185 1.109 0.207 0.52 0.712 0.596 0.677 0.8-0.041 0.244-0.777 0.265-2.217 0.555-1.042 0.209-1.366 0.341-1.478 0.616-0.139 0.34 0.184 0.566 0.061 0.985-0.108 0.367-0.457 0.54-1.109 0.863-0.726 0.359-1.275 0.631-1.909 0.493-0.483-0.106-0.521-0.341-0.863-0.308-0.491 0.046-0.635 0.553-1.232 1.047-0.445 0.368-0.868 0.503-1.416 0.677-1.394 0.444-2.625 0.198-3.265 0.062-1.351-0.287-1.089-0.598-2.279-0.801" fill="#a2e363"/>
		</g>
		<g transform="matrix(.35278 0 0 -.35278 -24.494 263.06)">
			<g clip-path="url(#clipPath552)" opacity=".31">
				<g transform="translate(409.66 396.32)">
					<path d="m0 0c12.768-15.197 20.467-34.796 20.467-56.198 0-48.293-39.149-87.442-87.442-87.442-21.403 0-41.001 7.698-56.199 20.467 16.039-19.117 40.1-31.275 67.006-31.275 48.293 0 87.442 39.149 87.442 87.442 0 26.906-12.158 50.967-31.274 67.006" fill="#7d9daf"/>
				</g>
			</g>
		</g>
		<g transform="matrix(.35278 0 0 -.35278 -24.494 263.06)">
			<g clip-path="url(#clipPath568)" opacity=".21001">
				<g transform="translate(273.15 321.8)">
					<path d="m0 0c0 48.293 39.149 87.442 87.442 87.442 22.273 0 42.597-8.332 58.036-22.044-16.018 18.037-39.378 29.406-65.398 29.406-48.293 0-87.442-39.149-87.442-87.442 0-26.02 11.369-49.38 29.406-65.398-13.712 15.439-22.044 35.763-22.044 58.036" fill="#fff"/>
				</g>
			</g>
		</g>
	</g>
</svg>
