<svg width="165" height="200" version="1.1" viewBox="0 0 43.656306 52.916668" xmlns="http://www.w3.org/2000/svg">
	<g transform="translate(-28.87 -138.24)">
		<path transform="matrix(.26458 0 0 .26458 28.87 138.24)" d="m2 0c-1.108 0-2 0.892-2 2v196c0 1.108 0.892 2 2 2h26c1.108 0 2-0.892 2-2v-196c0-1.108-0.892-2-2-2h-26zm45 40c-1.108 0-2 0.892-2 2v156c0 1.108 0.892 2 2 2h26c1.108 0 2-0.892 2-2v-156c0-1.108-0.892-2-2-2h-26zm45 60c-1.108 0-2 0.892-2 2v96c0 1.108 0.892 2 2 2h26c1.108 0 2-0.892 2-2v-96c0-1.108-0.892-2-2-2h-26zm45 50c-1.108 0-2 0.892-2 2v46c0 1.108 0.892 2 2 2h26c1.108 0 2-0.892 2-2v-46c0-1.108-0.892-2-2-2h-26z" fill="#f11d18"/>
	</g>
</svg>
